<svg width="31" height="27" viewBox="0 0 31 27" fill="none" xmlns="http://www.w3.org/2000/svg">
<path d="M0.9 0.971998H12.168C12.552 0.971998 12.864 1.104 13.104 1.368C13.344 1.632 13.464 1.98 13.464 2.412V27H9.684C8.868 27 8.328 26.868 8.064 26.604C7.824 26.34 7.704 25.788 7.704 24.948V5.472H1.944C1.248 5.472 0.9 4.896 0.9 3.744V0.971998ZM14.904 0.971998H20.664C21.36 0.971998 21.708 1.548 21.708 2.7V5.472H14.904V0.971998ZM30.3238 27H26.5438C25.7278 27 25.1878 26.868 24.9238 26.604C24.6838 26.34 24.5638 25.788 24.5638 24.948V3.024C24.5638 2.184 24.6838 1.632 24.9238 1.368C25.1878 1.104 25.7278 0.971998 26.5438 0.971998H30.3238V27Z" fill="#7B6BF3"/>
</svg>
